<svg xmlns="http://www.w3.org/2000/svg" width="81.791" height="51.709" viewBox="0 0 81.791 51.709">
    <defs>
        <clipPath id="fcwln59qma">
            <path data-name="사각형 81" style="fill:none" d="M0 0h81.791v51.709H0z"/>
        </clipPath>
    </defs>
    <g data-name="그룹 112" style="clip-path:url(#fcwln59qma)">
        <path data-name="패스 46" d="M82.351 59.746h7.134a8.852 8.852 0 0 1 2.63.371 6.317 6.317 0 0 1 2.053 1.045 4.791 4.791 0 0 1 1.332 1.624 4.616 4.616 0 0 1 .478 2.105 6.382 6.382 0 0 1-.129 1.32 4.129 4.129 0 0 1-.423 1.142 4.666 4.666 0 0 1-.779 1.023 8.956 8.956 0 0 1-1.2.993 5.415 5.415 0 0 1 1.349.749 5.03 5.03 0 0 1 1.06 1.1 5.168 5.168 0 0 1 .951 3.017 5.461 5.461 0 0 1-.447 2.209 5.22 5.22 0 0 1-1.275 1.779 6.084 6.084 0 0 1-1.986 1.194 7.224 7.224 0 0 1-2.568.437h-8.18zm4.082 8.718h2.685a2.643 2.643 0 0 0 1.158-.244 2.446 2.446 0 0 0 .859-.682 3.086 3.086 0 0 0 .533-1.045 4.532 4.532 0 0 0 .184-1.32 4.243 4.243 0 0 0-.233-1.438 2.912 2.912 0 0 0-.711-1.12 3.253 3.253 0 0 0-1.214-.726 5.238 5.238 0 0 0-1.74-.26h-1.52zm0 9.326h2.256a5.078 5.078 0 0 0 1.717-.26 3.3 3.3 0 0 0 1.195-.712 2.776 2.776 0 0 0 .7-1.082 4.019 4.019 0 0 0 .227-1.372 5.593 5.593 0 0 0-.208-1.564 3.215 3.215 0 0 0-.68-1.253 3.119 3.119 0 0 0-1.238-.83 5.192 5.192 0 0 0-1.869-.3h-2.1z" transform="translate(-38.79 -28.142)" style="fill:#757576"/>
        <path data-name="패스 47" d="M26.982 6.567A6.567 6.567 0 1 1 20.415 0a6.567 6.567 0 0 1 6.567 6.567" transform="translate(-6.523)" style="fill:#96b32d"/>
        <path data-name="패스 48" d="M16.67 52.623a4.515 4.515 0 1 1-4.515-4.515 4.515 4.515 0 0 1 4.515 4.515" transform="translate(-3.599 -22.66)" style="fill:#96b32d"/>
        <path data-name="패스 49" d="M40.071 27.465a4.966 4.966 0 1 1-4.966-4.965 4.966 4.966 0 0 1 4.966 4.966" transform="translate(-14.197 -10.598)" style="fill:#96b32d"/>
        <path data-name="패스 50" d="M52.285 35.785a3.761 3.761 0 1 1-3.761-3.761 3.761 3.761 0 0 1 3.761 3.761" transform="translate(-21.085 -15.084)" style="fill:#96b32d"/>
        <path data-name="패스 51" d="M26.157 40.988a2.249 2.249 0 1 1-2.25-2.25 2.25 2.25 0 0 1 2.25 2.25" transform="translate(-10.202 -18.247)" style="fill:#96b32d"/>
        <path data-name="패스 52" d="M70.714 27.872a4.509 4.509 0 1 1-4.508-4.508 4.508 4.508 0 0 1 4.508 4.508" transform="translate(-29.061 -11.005)" style="fill:#96b32d"/>
        <path data-name="패스 53" d="M66.448 75.756a2.733 2.733 0 1 1-2.733-2.733 2.733 2.733 0 0 1 2.733 2.733" transform="translate(-28.724 -34.396)" style="fill:#96b32d"/>
        <path data-name="패스 54" d="M119.72 59.376a2.733 2.733 0 1 1-2.733-2.733 2.733 2.733 0 0 1 2.733 2.733" transform="translate(-53.817 -26.681)" style="fill:#96b32d"/>
        <path data-name="패스 55" d="M11.456 28.866a5.728 5.728 0 1 1-5.728-5.728 5.728 5.728 0 0 1 5.728 5.728" transform="translate(0 -10.899)" style="fill:#fece30"/>
        <path data-name="패스 56" d="M53.651 10.925a5.4 5.4 0 1 1-5.4-5.4 5.4 5.4 0 0 1 5.4 5.4" transform="translate(-20.185 -2.603)" style="fill:#e76143"/>
        <path data-name="패스 57" d="M40.168 51.44a5.843 5.843 0 1 1-5.844-5.84 5.844 5.844 0 0 1 5.844 5.844" transform="translate(-13.415 -21.477)" style="fill:#757576"/>
        <path data-name="패스 58" d="M63.708 49.637a4.041 4.041 0 1 1-4.04-4.04 4.04 4.04 0 0 1 4.04 4.04" transform="translate(-26.202 -21.478)" style="fill:#5b9bbc"/>
        <path data-name="패스 59" d="M35.446 69.916a5.828 5.828 0 0 1-4.584-2.227v15.9h9.168v-15.9a5.828 5.828 0 0 1-4.584 2.227" transform="translate(-14.537 -31.884)" style="fill:#96b32d"/>
        <path data-name="사각형 78" transform="translate(61.235 38.524)" style="fill:#757576" d="M0 0h3.87v13.185H0z"/>
        <path data-name="사각형 79" transform="translate(69.712 29.836)" style="fill:#757576" d="M0 0h3.87v21.873H0z"/>
        <path data-name="사각형 80" transform="translate(77.921 29.836)" style="fill:#757576" d="M0 0h3.87v21.873H0z"/>
    </g>
</svg>
