<svg xmlns="http://www.w3.org/2000/svg" width="139.528" height="51" viewBox="0 0 139.528 51">
    <defs>
        <clipPath id="kylrwrw4wa">
            <path data-name="사각형 83" style="fill:none" d="M0 0h139.528v51H0z"/>
        </clipPath>
    </defs>
    <g data-name="그룹 116" style="clip-path:url(#kylrwrw4wa)">
        <path data-name="패스 73" d="M15.263 48.2a4.4 4.4 0 0 0 1.766-3.357 4.782 4.782 0 0 0-2.608-3.943h3.757v-2.266h-7.049V36.76h-3.7v1.874H.381V40.9h3.755a4.784 4.784 0 0 0-2.606 3.947A4.4 4.4 0 0 0 3.294 48.2v4.16H0v2.264h18.554v-2.26h-3.291zM4.99 44.847c0-1.674 1.919-3.034 4.288-3.034s4.283 1.36 4.283 3.034-1.915 3.036-4.283 3.036-4.288-1.361-4.288-3.036m1.755 4.993a10.935 10.935 0 0 0 5.068 0v2.524H6.745z" transform="translate(0 -8.485)" style="fill:#003580"/>
        <path data-name="패스 74" d="M46.067 37.548h-3.444v2.481h-3.232v2.262h3.232v6.136a12.085 12.085 0 0 0-4.326-.761c-4.284 0-7.764 2.014-7.764 4.5s3.48 4.5 7.764 4.5 7.771-2.015 7.771-4.5V37.548zM38.3 54.4c-2.364 0-4.278-1-4.278-2.231s1.914-2.233 4.278-2.233 4.288 1 4.288 2.233S40.668 54.4 38.3 54.4" transform="translate(-7.048 -8.667)" style="fill:#003580"/>
        <path data-name="패스 75" d="M33.112 41.738a21.861 21.861 0 0 0 5.013 5.462l1.834-1.869a24.113 24.113 0 0 1-4.988-6.425 1.962 1.962 0 0 0-3.717 0 24.09 24.09 0 0 1-4.99 6.425L28.1 47.2a21.731 21.731 0 0 0 5.01-5.467" transform="translate(-6.062 -8.674)" style="fill:#003580"/>
        <path data-name="패스 76" d="M142.88 33.7c-4.83 0-8.3 2.848-8.3 7.086 0 4.515 2.917 6.044 8.092 7.294 4.517 1.041 5.489 1.981 5.489 3.752 0 1.874-1.668 3.091-4.307 3.091a11.1 11.1 0 0 1-7.406-2.937l-2.841 2.833a14.979 14.979 0 0 0 10.142 3.89c5.107 0 8.684-2.708 8.684-7.293 0-4.064-2.675-5.906-7.816-7.156-4.654-1.111-5.765-1.946-5.765-3.855 0-1.633 1.458-2.917 3.958-2.917a10.631 10.631 0 0 1 6.017 2.086l2.846-2.849a13.37 13.37 0 0 0-8.793-3.025" transform="translate(-30.84 -7.779)" style="fill:#151c3e"/>
        <path data-name="패스 77" d="M81.177 51.717c-2.066 1.919-3.97 3.116-6.933 3.116-4.655 0-8.025-3.89-8.025-8.684s3.37-8.614 8.025-8.614a9.488 9.488 0 0 1 6.556 2.793l2.962-2.961a12.661 12.661 0 0 0-9.485-3.756 12.311 12.311 0 0 0-12.539 12.608A12.238 12.238 0 0 0 74.1 58.758a12.535 12.535 0 0 0 9.836-4.279L81.22 51.76z" transform="translate(-14.251 -7.759)" style="fill:#151c3e"/>
        <path data-name="패스 78" d="M120.4 34.156h-3.377l-8.571 8.572-8.572-8.572h-3.375l.03 20.037 4.2 4.2V41.015l7.716 7.716 7.706-7.708v17.442l4.274-4.272V34.156z" transform="translate(-22.276 -7.884)" style="fill:#151c3e"/>
        <path data-name="패스 79" d="M108.454 0 96.5 11.949h11.949z" transform="translate(-22.276)" style="fill:#ffa900"/>
        <path data-name="패스 80" d="M123.988 11.949 112.04 0v11.949z" transform="translate(-25.862)" style="fill:#fff"/>
        <path data-name="패스 81" d="m96.5 15.535 11.949 11.949V15.535z" transform="translate(-22.276 -3.586)" style="fill:#151c3e"/>
        <path data-name="패스 82" d="M112.04 15.535v11.949l11.948-11.949z" transform="translate(-25.862 -3.586)" style="fill:#003580"/>
        <path data-name="패스 83" d="M171.234 38.916h-4.748v5.467h-5.474v4.747h5.474v5.478h4.748V49.13h5.46v-4.748h-5.46z" transform="translate(-37.166 -8.983)" style="fill:#151c3e"/>
    </g>
</svg>
