<svg xmlns="http://www.w3.org/2000/svg" width="127" height="37.13" viewBox="0 0 127 37.13">
    <defs>
        <clipPath id="3pw7dxcpwa">
            <path data-name="사각형 82" style="fill:none" d="M0 0h127v37.13H0z"/>
        </clipPath>
    </defs>
    <g data-name="그룹 114" style="clip-path:url(#3pw7dxcpwa)">
        <path data-name="패스 60" d="M11.112 45.092a3.2 3.2 0 0 0 1.288-2.444 3.482 3.482 0 0 0-1.9-2.874h2.736v-1.649H8.1V36.76H5.408v1.365H.277v1.649h2.734a3.483 3.483 0 0 0-1.9 2.874A3.2 3.2 0 0 0 2.4 45.092v3.028H0v1.649h13.508V48.12h-2.4zm-7.479-2.444c0-1.219 1.4-2.209 3.122-2.209s3.118.99 3.118 2.209-1.394 2.21-3.118 2.21-3.122-.991-3.122-2.21m1.277 3.635a7.961 7.961 0 0 0 3.69 0v1.837H4.911z" transform="translate(0 -16.175)" style="fill:#003580"/>
        <path data-name="패스 61" d="M41.842 37.548h-2.507v1.807h-2.353V41h2.353v4.467a8.8 8.8 0 0 0-3.149-.554c-3.119 0-5.652 1.466-5.652 3.279s2.533 3.279 5.652 3.279 5.657-1.471 5.657-3.278V37.548zm-5.657 12.269c-1.721 0-3.115-.725-3.115-1.624s1.394-1.626 3.115-1.626 3.122.726 3.122 1.626-1.4 1.624-3.122 1.624" transform="translate(-13.435 -16.522)" style="fill:#003580"/>
        <path data-name="패스 62" d="M31.25 40.607a15.916 15.916 0 0 0 3.649 3.98l1.336-1.361a17.555 17.555 0 0 1-3.635-4.678 1.428 1.428 0 0 0-2.706 0 17.538 17.538 0 0 1-3.633 4.678l1.339 1.361a15.82 15.82 0 0 0 3.648-3.98" transform="translate(-11.557 -16.535)" style="fill:#003580"/>
        <path data-name="패스 63" d="M140.358 33.7c-3.517 0-6.044 2.074-6.044 5.159 0 3.287 2.123 4.4 5.892 5.31 3.288.758 4 1.442 4 2.732 0 1.365-1.214 2.25-3.136 2.25a8.079 8.079 0 0 1-5.392-2.138l-2.078 2.064a10.906 10.906 0 0 0 7.384 2.832c3.718 0 6.322-1.972 6.322-5.31 0-2.958-1.948-4.3-5.69-5.21-3.388-.809-4.2-1.417-4.2-2.807 0-1.189 1.061-2.124 2.882-2.124a7.739 7.739 0 0 1 4.381 1.519l2.072-2.074a9.734 9.734 0 0 0-6.4-2.2" transform="translate(-58.788 -14.829)" style="fill:#151c3e"/>
        <path data-name="패스 64" d="M75.891 46.793a6.909 6.909 0 0 1-5.048 2.269c-3.389 0-5.843-2.832-5.843-6.323a5.95 5.95 0 0 1 5.842-6.271 6.908 6.908 0 0 1 4.774 2.032l2.156-2.156a9.218 9.218 0 0 0-6.906-2.734 8.963 8.963 0 0 0-9.129 9.179 8.91 8.91 0 0 0 9 9.129A9.126 9.126 0 0 0 77.9 48.8l-1.981-1.98z" transform="translate(-27.166 -14.79)" style="fill:#151c3e"/>
        <path data-name="패스 65" d="M113.9 34.156h-2.458L105.2 40.4l-6.242-6.241h-2.453l.022 14.588 3.06 3.06V39.15l5.617 5.617 5.61-5.612v12.7l3.111-3.11V34.156z" transform="translate(-42.464 -15.029)" style="fill:#151c3e"/>
        <path data-name="패스 66" d="m105.2 0-8.7 8.7h8.7z" transform="translate(-42.463)" style="fill:#ffa900"/>
        <path data-name="패스 67" d="M120.738 8.7 112.04 0v8.7z" transform="translate(-49.299)" style="fill:#fff"/>
        <path data-name="패스 68" d="m96.5 15.535 8.7 8.7v-8.7z" transform="translate(-42.464 -6.836)" style="fill:#151c3e"/>
        <path data-name="패스 69" d="M112.04 15.535v8.7l8.7-8.7z" transform="translate(-49.299 -6.836)" style="fill:#003580"/>
        <path data-name="패스 70" d="m170.756 48.5 1.624-2.19a5.536 5.536 0 0 0 3.885 1.789c1.766 0 2.966-.847 2.966-2.307 0-1.648-1.012-2.66-4.8-2.66v-2.5c3.2 0 4.237-1.059 4.237-2.519 0-1.318-.848-2.095-2.331-2.095a4.764 4.764 0 0 0-3.3 1.553l-1.766-2.118a7.751 7.751 0 0 1 5.226-2.166c3.366 0 5.65 1.648 5.65 4.567a4.038 4.038 0 0 1-2.9 3.837v.118a4.272 4.272 0 0 1 3.46 4.19c0 3.107-2.8 4.92-6.12 4.92a7.407 7.407 0 0 1-5.838-2.425" transform="translate(-75.135 -14.65)" style="fill:#151c3e"/>
        <path data-name="패스 71" d="M195.305 58.968a2.156 2.156 0 1 1 2.142 2.26 2.15 2.15 0 0 1-2.142-2.26" transform="translate(-85.937 -24.953)" style="fill:#151c3e"/>
        <path data-name="패스 72" d="M205.73 42.027c0-5.744 2.331-8.734 5.91-8.734s5.885 3.013 5.885 8.734c0 5.767-2.307 8.9-5.885 8.9s-5.91-3.131-5.91-8.9m8.522 0c0-4.708-1.107-6.027-2.613-6.027S209 37.318 209 42.027c0 4.732 1.13 6.191 2.637 6.191s2.613-1.459 2.613-6.191" transform="translate(-90.524 -14.65)" style="fill:#151c3e"/>
    </g>
</svg>
