<svg xmlns="http://www.w3.org/2000/svg" width="155" height="110" viewBox="0 0 155 110">
    <defs>
        <clipPath id="nz8dtrhlja">
            <path data-name="사각형 389" transform="translate(0 26)" style="fill:none" d="M0 0h155v110H0z"/>
        </clipPath>
    </defs>
    <g data-name="그룹 326" style="clip-path:url(#nz8dtrhlja)" transform="translate(0 -26)">
        <path data-name="패스 92" d="M77.662 58.844a19.472 19.472 0 0 0-19.449 19.449c0 6.449 3.162 10.818 5.7 14.328 1.756 2.428 3.274 4.525 3.274 6.617v11.969a7.489 7.489 0 0 0 7.481 7.48h5.984a7.489 7.489 0 0 0 7.48-7.48V99.238c0-2.092 1.518-4.189 3.274-6.617 2.541-3.511 5.7-7.88 5.7-14.328a19.472 19.472 0 0 0-19.444-19.449zm11.323 32.024c-1.975 2.731-3.842 5.31-3.842 8.37v7.48H74.67a1.5 1.5 0 1 0 0 2.992h10.473v1.5a4.493 4.493 0 0 1-4.488 4.488h-5.984a4.493 4.493 0 0 1-4.488-4.488v-10.473h10.473a1.5 1.5 0 0 0 0-2.992H70.013c-.48-2.428-2.033-4.6-3.677-6.874-2.406-3.327-5.134-7.094-5.134-12.575a16.457 16.457 0 0 1 32.914 0c.003 5.478-2.725 9.248-5.131 12.572z"/>
        <path data-name="패스 93" d="M739.48 2020h-5.98a1.5 1.5 0 1 0 0 2.992h5.984a1.5 1.5 0 1 0 0-2.992z" transform="translate(-628.903 -1943.203)" style="fill:#335df4"/>
        <path data-name="패스 94" d="M579.48 2020h-5.98a1.5 1.5 0 1 0 0 2.992h5.984a1.5 1.5 0 1 0 0-2.992z" transform="translate(-528.748 -1943.203)" style="fill:#335df4"/>
        <path data-name="패스 95" d="M661.5 1940.977a1.5 1.5 0 0 0 1.5-1.5v-5.977a1.5 1.5 0 0 0-2.992 0v5.984a1.5 1.5 0 0 0 1.492 1.493z" transform="translate(-583.833 -1888.117)" style="fill:#335df4"/>
        <path data-name="패스 96" d="M603.042 1963.042a1.5 1.5 0 0 0 0-2.116l-4.488-4.488a1.5 1.5 0 0 0-2.115 2.115l4.488 4.488a1.5 1.5 0 0 0 2.116 0z" transform="translate(-543.771 -1903.141)" style="fill:#335df4"/>
        <path data-name="패스 97" d="M719.042 1956.439a1.5 1.5 0 0 0-2.115 0l-4.488 4.488a1.5 1.5 0 0 0 2.116 2.116l4.488-4.488a1.5 1.5 0 0 0-.001-2.116z" transform="translate(-616.384 -1903.141)" style="fill:#335df4"/>
    </g>
</svg>
