<svg xmlns="http://www.w3.org/2000/svg" width="155" height="110" viewBox="0 0 155 110">
    <defs>
        <clipPath id="m7cqpdb2ua">
            <path data-name="사각형 385" style="fill:none" d="M0 0h155v110H0z"/>
        </clipPath>
    </defs>
    <g data-name="그룹 323">
        <g data-name="그룹 322" style="clip-path:url(#m7cqpdb2ua)">
            <path data-name="패스 90" d="M65 260.827a15.588 15.588 0 0 0 15.588 15.588h27.931a5.472 5.472 0 0 0 5.456-5.456h0a5.471 5.471 0 0 0-5.456-5.456h1.56a5.455 5.455 0 0 0 0-10.911h1.558a5.473 5.473 0 0 0 5.456-5.456h0a5.473 5.473 0 0 0-5.454-5.456c.227 0-5.059.028-4.84 0h4.84c.34-.006 1.074-.107 1.1-.112a5.455 5.455 0 0 0-1.1-10.8H91.5a18.023 18.023 0 0 0 1.892-18.614c-2.061-4.5-4.759-5.156-6.849-5.156-3.116 0-3.155 6.237-4.336 9.924-4.053 12.657-12.949 21.641-17.207 21.641z" transform="translate(-4.679 -188.415)" style="stroke-width:3px;stroke-linejoin:round;stroke:#333;stroke-linecap:round;fill:none"/>
            <path data-name="패스 91" d="M3 0h9.322a3 3 0 0 1 3 3v34.6a3 3 0 0 1-3 3H3a3 3 0 0 1-3-3V3a3 3 0 0 1 3-3z" transform="translate(45 47.397)" style="fill:#335df4;stroke-width:3px;stroke:#333;stroke-linecap:round"/>
            <circle data-name="타원 31" cx=".766" cy=".766" r=".766" transform="translate(51.895 77.275)" style="stroke-width:2px;stroke-linejoin:round;stroke:#333;stroke-linecap:round;fill:none"/>
        </g>
    </g>
</svg>
