<svg xmlns="http://www.w3.org/2000/svg" xmlns:xlink="http://www.w3.org/1999/xlink" width="40" height="40" viewBox="0 0 40 40">
  <defs>
    <clipPath id="clip-path">
      <rect id="사각형_4327" data-name="사각형 4327" width="40" height="40" transform="translate(-4 -3)" fill="none"/>
    </clipPath>
  </defs>
  <g id="그룹_1" data-name="그룹 1" transform="translate(3 4)">
    <g id="그룹_12616" data-name="그룹 12616" transform="translate(1 -1)" clip-path="url(#clip-path)">
      <g id="그룹_12621" data-name="그룹 12621" transform="translate(-2 -1.001)">
        <path id="패스_8255" data-name="패스 8255" d="M26.91,73.083H2.446A2.408,2.408,0,0,1,0,70.719V42.363A2.408,2.408,0,0,1,2.446,40H4.893a1.182,1.182,0,1,1,0,2.363H2.446V70.719H26.91V42.363h-3.67a1.182,1.182,0,1,1,0-2.363h3.67a2.408,2.408,0,0,1,2.446,2.363V70.719a2.408,2.408,0,0,1-2.446,2.363" transform="translate(3 -36.082)" fill="#247feb"/>
        <path id="패스_8256" data-name="패스 8256" d="M137.089,122.363h-5.908a1.182,1.182,0,1,1,0-2.363h5.908a1.182,1.182,0,0,1,0,2.363" transform="translate(-110.9 -106.629)" fill="#247feb"/>
        <path id="패스_8257" data-name="패스 8257" d="M137.089,182.363h-5.908a1.182,1.182,0,1,1,0-2.363h5.908a1.182,1.182,0,0,1,0,2.363" transform="translate(-110.9 -159.541)" fill="#247feb"/>
        <path id="패스_8258" data-name="패스 8258" d="M137.089,242.363h-5.908a1.182,1.182,0,1,1,0-2.363h5.908a1.182,1.182,0,0,1,0,2.363" transform="translate(-110.9 -212.452)" fill="#247feb"/>
        <path id="패스_8259" data-name="패스 8259" d="M61.18,107.089a1.182,1.182,0,0,1-.944-1.891l3.545-4.726a1.181,1.181,0,1,1,1.89,1.418l-3.545,4.726a1.179,1.179,0,0,1-.946.472" transform="translate(-49.603 -88.993)" fill="#247feb"/>
        <path id="패스_8260" data-name="패스 8260" d="M43.545,124.726a1.178,1.178,0,0,1-.835-.346l-2.363-2.363a1.181,1.181,0,0,1,1.671-1.671l2.363,2.363a1.182,1.182,0,0,1-.835,2.017" transform="translate(-32.08 -106.629)" fill="#247feb"/>
        <path id="패스_8261" data-name="패스 8261" d="M61.18,167.088a1.182,1.182,0,0,1-.944-1.891l3.545-4.726a1.181,1.181,0,1,1,1.89,1.418l-3.545,4.726a1.179,1.179,0,0,1-.946.472" transform="translate(-49.603 -141.902)" fill="#247feb"/>
        <path id="패스_8262" data-name="패스 8262" d="M43.545,184.726a1.178,1.178,0,0,1-.835-.346l-2.363-2.363a1.181,1.181,0,0,1,1.671-1.671l2.363,2.363a1.182,1.182,0,0,1-.835,2.017" transform="translate(-32.08 -159.541)" fill="#247feb"/>
        <path id="패스_8263" data-name="패스 8263" d="M61.18,227.088a1.182,1.182,0,0,1-.944-1.891l3.545-4.726a1.181,1.181,0,1,1,1.89,1.418l-3.545,4.726a1.179,1.179,0,0,1-.946.472" transform="translate(-49.603 -194.813)" fill="#247feb"/>
        <path id="패스_8264" data-name="패스 8264" d="M43.545,244.726a1.178,1.178,0,0,1-.835-.346l-2.363-2.363a1.181,1.181,0,0,1,1.671-1.671l2.363,2.363a1.182,1.182,0,0,1-.835,2.017" transform="translate(-32.08 -212.452)" fill="#247feb"/>
        <path id="패스_8265" data-name="패스 8265" d="M58.66,9.452H41.244A1.214,1.214,0,0,1,40,8.271V3.545a1.214,1.214,0,0,1,1.244-1.182h4.415a5.082,5.082,0,0,1,8.587,0H58.66A1.214,1.214,0,0,1,59.9,3.545V8.271A1.214,1.214,0,0,1,58.66,9.452M42.488,7.089H57.416V4.726h-3.96a1.243,1.243,0,0,1-1.172-.786,2.512,2.512,0,0,0-4.663,0,1.243,1.243,0,0,1-1.172.786h-3.96Z" transform="translate(-32.275 -0.808)" fill="#247feb"/>
        <rect id="사각형_4329" data-name="사각형 4329" width="30" height="38" transform="translate(3 -0.999)" fill="none"/>
      </g>
    </g>
  </g>
</svg>
