<svg xmlns="http://www.w3.org/2000/svg" width="24" height="22" viewBox="0 0 24 22">
  <g id="아이콘" transform="translate(-3.84 -5.371)">
    <path id="패스_8311" data-name="패스 8311" d="M67.475,77.59c-6.628,0-12,4.238-12,9.466,0,3.4,2.276,6.385,5.693,8.053-.251.935-.909,3.388-1.041,3.912-.162.651.239.642.5.467.206-.137,3.288-2.227,4.618-3.13a15.237,15.237,0,0,0,2.227.163c6.627,0,12-4.239,12-9.466s-5.373-9.466-12-9.466" transform="translate(-51.635 -72.219)" fill="#391b1b"/>
    <path id="패스_8312" data-name="패스 8312" d="M108.888,185.247h-3.513a.6.6,0,1,0,0,1.2h1.142v4.209a.585.585,0,0,0,.583.583h.128a.584.584,0,0,0,.582-.583v-4.209h1.079a.6.6,0,1,0,0-1.2" transform="translate(-97.868 -173.207)" fill="#fae300"/>
    <path id="패스_8313" data-name="패스 8313" d="M262.34,188.841h-1.634v-4.3a.648.648,0,1,0-1.3,0v4.633a.632.632,0,0,0,.01.1.549.549,0,0,0-.01.1.542.542,0,0,0,.542.543h2.388a.542.542,0,0,0,0-1.085" transform="translate(-242.895 -171.938)" fill="#fae300"/>
    <path id="패스_8314" data-name="패스 8314" d="M325.343,189.038l-1.821-2.391L325.167,185a.571.571,0,1,0-.807-.807l-2.036,2.036v-1.689a.648.648,0,1,0-1.3,0v4.776a.648.648,0,1,0,1.3,0v-1.473l.37-.37,1.722,2.26a.58.58,0,1,0,.927-.7" transform="translate(-300.688 -171.938)" fill="#fae300"/>
    <path id="패스_8315" data-name="패스 8315" d="M173.016,189.193l-1.751-4.79-.006-.005a.861.861,0,0,0-.82-.5.836.836,0,0,0-.851.6.794.794,0,0,0-.033.079l-1.722,4.618a.581.581,0,1,0,1.1.385l.3-.85h2.4l.3.85a.581.581,0,1,0,1.1-.385m-3.41-1.551.805-2.3.026,0,.8,2.3Z" transform="translate(-156.979 -171.937)" fill="#fae300"/>
  </g>
</svg>
