<svg xmlns="http://www.w3.org/2000/svg" xmlns:xlink="http://www.w3.org/1999/xlink" width="40" height="40" viewBox="0 0 40 40">
  <defs>
    <clipPath id="clip-path">
      <rect id="사각형_4328" data-name="사각형 4328" width="40" height="40" transform="translate(-4 -5.001)" fill="none"/>
    </clipPath>
  </defs>
  <g id="그룹_1" data-name="그룹 1" transform="translate(7 6.001)">
    <g id="그룹_12618" data-name="그룹 12618" transform="translate(-3 -1)" clip-path="url(#clip-path)">
      <g id="그룹_12620" data-name="그룹 12620" transform="translate(2.001 2)">
        <path id="패스_8252" data-name="패스 8252" d="M33.9,1.458H2.016a.546.546,0,0,0-.558.532V24.16a.545.545,0,0,0,.558.531H8.959a.546.546,0,0,1,.558.532v5.7a.562.562,0,0,0,.953.376l6.775-6.453a.573.573,0,0,1,.395-.156H33.9a.545.545,0,0,0,.558-.531V1.99A.546.546,0,0,0,33.9,1.458Z" transform="translate(-3.457 -1.459)" fill="none" stroke="#247feb" stroke-linecap="round" stroke-linejoin="round" stroke-width="2.4"/>
        <line id="선_667" data-name="선 667" y1="11.396" x2="11.619" transform="translate(8.694 6.001)" fill="none" stroke="#247feb" stroke-linecap="round" stroke-linejoin="round" stroke-width="2.4"/>
        <path id="패스_8253" data-name="패스 8253" d="M34.389,19.914a2.268,2.268,0,1,1-2.267-2.224A2.246,2.246,0,0,1,34.389,19.914Z" transform="translate(-21.832 -12.262)" fill="none" stroke="#247feb" stroke-linecap="round" stroke-linejoin="round" stroke-width="2.4"/>
        <path id="패스_8254" data-name="패스 8254" d="M58.259,43.767a2.268,2.268,0,1,1-2.267-2.224A2.246,2.246,0,0,1,58.259,43.767Z" transform="translate(-37.278 -28.137)" fill="none" stroke="#247feb" stroke-linecap="round" stroke-linejoin="round" stroke-width="2.4"/>
      </g>
    </g>
  </g>
</svg>
