<svg xmlns="http://www.w3.org/2000/svg" xmlns:xlink="http://www.w3.org/1999/xlink" width="32" height="32" viewBox="0 0 32 32">
  <defs>
    <clipPath id="clip-path">
      <rect id="사각형_4361" data-name="사각형 4361" width="18" height="16.772" fill="#007aff"/>
    </clipPath>
  </defs>
  <g id="그룹_12643" data-name="그룹 12643" transform="translate(-297 -557)">
    <g id="타원_922" data-name="타원 922" transform="translate(297 557)" fill="#fff" stroke="#e3e3e3" stroke-width="1">
      <circle cx="16" cy="16" r="16" stroke="none"/>
      <circle cx="16" cy="16" r="15.5" fill="none"/>
    </g>
    <g id="그룹_12642" data-name="그룹 12642" transform="translate(304 565)">
      <g id="그룹_12641" data-name="그룹 12641" clip-path="url(#clip-path)">
        <path id="패스_8309" data-name="패스 8309" d="M4.914,6.337l.591-.829c.683-.959.664-.651.186-1.721q-.612-1.37-1.223-2.74C4.089.2,4.126.054,3.068,0A2.005,2.005,0,0,0,2.033.189,4.761,4.761,0,0,0,.085,3.049C-.964,9.484,7.887,17.119,15.2,16.76a3.181,3.181,0,0,0,2.445-1.968,5.5,5.5,0,0,0,.272-1.154c.174-1.244.142-.979-.972-1.539l-2.693-1.353c-.861-.434-.659-.547-1.275.135l-1.21,1.337c-.538.6-.369.569-1.154.286A9.914,9.914,0,0,1,4.764,7.388c-.268-.635-.238-.5.151-1.051" transform="translate(0 0)" fill="#007aff"/>
      </g>
    </g>
  </g>
</svg>
