<svg xmlns="http://www.w3.org/2000/svg" xmlns:xlink="http://www.w3.org/1999/xlink" width="40" height="40" viewBox="0 0 40 40">
  <defs>
    <clipPath id="clip-path">
      <rect id="사각형_4327" data-name="사각형 4327" width="40" height="40" transform="translate(-4 -3)" fill="none"/>
    </clipPath>
  </defs>
  <g id="그룹_1" data-name="그룹 1" transform="translate(3 4)">
    <g id="그룹_12616" data-name="그룹 12616" transform="translate(1 -1)" clip-path="url(#clip-path)">
      <path id="패스_8244" data-name="패스 8244" d="M125.53,6.565a1.133,1.133,0,0,0,1.116-1.15V1.15a1.117,1.117,0,1,0-2.233,0V5.415a1.133,1.133,0,0,0,1.116,1.15" transform="translate(-102.014)" fill="#247feb"/>
      <path id="패스_8245" data-name="패스 8245" d="M27.758,11.712H25.526v2.3h2.232a2.188,2.188,0,0,1,2.009,2.327v2.4H2.233v-2.4a2.189,2.189,0,0,1,2.009-2.327H6.474v-2.3H4.242A4.452,4.452,0,0,0,0,16.339V36.913A4.452,4.452,0,0,0,4.242,41.54H27.758A4.452,4.452,0,0,0,32,36.913V16.339a4.452,4.452,0,0,0-4.242-4.627m0,27.529H4.242a2.189,2.189,0,0,1-2.009-2.327V21.034H29.767v15.88a2.188,2.188,0,0,1-2.009,2.327" transform="translate(0 -9.54)" fill="#247feb"/>
      <rect id="사각형_4326" data-name="사각형 4326" width="11.014" height="2.299" transform="translate(10.493 2.172)" fill="#247feb"/>
      <path id="패스_8246" data-name="패스 8246" d="M42.035,6.565a1.133,1.133,0,0,0,1.116-1.15V1.15a1.117,1.117,0,1,0-2.233,0V5.415a1.133,1.133,0,0,0,1.116,1.15" transform="translate(-33.552)" fill="#247feb"/>
      <path id="패스_8247" data-name="패스 8247" d="M77.464,74.808H73.477a.963.963,0,0,0-.948.977v4.081a.963.963,0,0,0,.948.977h3.986a.963.963,0,0,0,.948-.977V75.785a.963.963,0,0,0-.948-.977m-.948,4.081H74.426V76.762h2.089Z" transform="translate(-59.47 -60.936)" fill="#247feb"/>
      <path id="패스_8248" data-name="패스 8248" d="M121.126,74.808H117.14a.963.963,0,0,0-.949.977v4.081a.963.963,0,0,0,.949.977h3.986a.963.963,0,0,0,.949-.977V75.785a.963.963,0,0,0-.949-.977m-.948,4.081h-2.089V76.762h2.089Z" transform="translate(-95.271 -60.936)" fill="#247feb"/>
      <path id="패스_8249" data-name="패스 8249" d="M33.8,74.808H29.815a.963.963,0,0,0-.948.977v4.081a.963.963,0,0,0,.948.977H33.8a.963.963,0,0,0,.948-.977V75.785a.963.963,0,0,0-.948-.977m-.949,4.081H30.764V76.762h2.089Z" transform="translate(-23.67 -60.936)" fill="#247feb"/>
      <path id="패스_8250" data-name="패스 8250" d="M77.464,115.747H73.477a.963.963,0,0,0-.948.977V120.8a.963.963,0,0,0,.948.977h3.986a.963.963,0,0,0,.948-.977v-4.081a.963.963,0,0,0-.948-.977m-.948,4.081H74.426V117.7h2.089Z" transform="translate(-59.47 -94.283)" fill="#247feb"/>
      <path id="패스_8251" data-name="패스 8251" d="M33.8,115.747H29.815a.963.963,0,0,0-.948.977V120.8a.963.963,0,0,0,.948.977H33.8a.963.963,0,0,0,.948-.977v-4.081a.963.963,0,0,0-.948-.977m-.949,4.081H30.764V117.7h2.089Z" transform="translate(-23.67 -94.283)" fill="#247feb"/>
    </g>
  </g>
</svg>
