<svg xmlns="http://www.w3.org/2000/svg" xmlns:xlink="http://www.w3.org/1999/xlink" width="40" height="40" viewBox="0 0 40 40">
  <defs>
    <clipPath id="clip-path">
      <rect id="사각형_4325" data-name="사각형 4325" width="40" height="40" transform="translate(-2 -1.609)" fill="none"/>
    </clipPath>
  </defs>
  <g id="마스크_그룹_12614" data-name="마스크 그룹 12614" transform="translate(2 1.609)" clip-path="url(#clip-path)">
    <path id="패스_8238" data-name="패스 8238" d="M15.919,36.386H3.98A3.915,3.915,0,0,1,0,32.548V3.838A3.915,3.915,0,0,1,3.98,0H21.036a3.915,3.915,0,0,1,3.98,3.838v7.533a1.137,1.137,0,0,1-2.274,0V3.838a1.641,1.641,0,0,0-1.706-1.563H3.98A1.641,1.641,0,0,0,2.274,3.838V32.548A1.641,1.641,0,0,0,3.98,34.112H15.919a1.137,1.137,0,0,1,0,2.274" transform="translate(0 0.005)" fill="#247feb"/>
    <path id="패스_8239" data-name="패스 8239" d="M12.508,262.274H1.137a1.137,1.137,0,1,1,0-2.274H12.508a1.137,1.137,0,1,1,0,2.274" transform="translate(0 -230.432)" fill="#247feb"/>
    <path id="패스_8240" data-name="패스 8240" d="M22.741,42.274H1.137a1.137,1.137,0,0,1,0-2.274h21.6a1.137,1.137,0,1,1,0,2.274" transform="translate(0 -35.447)" fill="#247feb"/>
    <path id="패스_8241" data-name="패스 8241" d="M201.137,196.822a1.137,1.137,0,0,1-.8-1.941l4.548-4.548a1.137,1.137,0,1,1,1.608,1.608l-4.548,4.548a1.133,1.133,0,0,1-.8.333" transform="translate(-177.259 -168.391)" fill="#247feb"/>
    <path id="패스_8242" data-name="패스 8242" d="M183.412,214.548a1.133,1.133,0,0,1-.8-.333l-2.274-2.274a1.137,1.137,0,1,1,1.608-1.608l2.274,2.274a1.137,1.137,0,0,1-.8,1.941" transform="translate(-159.533 -186.117)" fill="#247feb"/>
    <path id="패스_8243" data-name="패스 8243" d="M131.371,142.741a11.371,11.371,0,1,1,11.371-11.371,11.383,11.383,0,0,1-11.371,11.371m0-20.467a9.1,9.1,0,1,0,9.1,9.1,9.107,9.107,0,0,0-9.1-9.1" transform="translate(-106.355 -106.35)" fill="#247feb"/>
  </g>
</svg>
