<svg xmlns="http://www.w3.org/2000/svg" width="38" height="38" viewBox="0 0 38 38">
    <g transform="translate(-102 -132)">
        <circle data-name="타원 1" cx="19" cy="19" r="19" transform="translate(102 132)" style="fill:#727981"/>
        <g data-name="그룹 18">
            <path data-name="패스 8" d="M140.925 70.846a.887.887 0 1 0 .887.887.886.886 0 0 0-.887-.887z" transform="translate(-26.076 79.989)" style="fill:#fff"/>
            <path data-name="패스 11" d="M140.925 70.846a.887.887 0 1 0 .887.887.886.886 0 0 0-.887-.887z" transform="translate(-18.786 79.989)" style="fill:#fff"/>
            <path data-name="패스 12" d="M140.925 70.846a.887.887 0 1 0 .887.887.886.886 0 0 0-.887-.887z" transform="translate(-13.719 79.989)" style="fill:#fff"/>
            <path data-name="패스 10" d="M147 47.014h-14.95a3.457 3.457 0 0 0-3.451 3.465V58.7a3.455 3.455 0 0 0 3.451 3.463h5.15l1.757 2.86a.548.548 0 0 0 .056.083.589.589 0 0 0 1.02 0 .374.374 0 0 0 .06-.087l1.756-2.86H147a3.459 3.459 0 0 0 3.453-3.463v-8.217A3.461 3.461 0 0 0 147 47.014zm-13.351 11.014a1.283 1.283 0 0 1-1.125-.577v.436h-1.351v-5.573h1.336v2.123a1.778 1.778 0 0 1 1.14-.529c1.815 0 1.884 2.036 1.884 2.036a1.974 1.974 0 0 1-1.884 2.084zm4.215-3.745v3.6h-1.29v-3.3c0-1.139-.609-1.111-.609-1.111v-1.286c1.955 0 1.899 2.097 1.899 2.097zm5.415 1.707c0 2.034-2.262 2.038-2.262 2.038a2 2 0 0 1-2.212-2.038c0-2.063 2.212-2.063 2.212-2.063a2.031 2.031 0 0 1 2.262 2.063zm4.992 1.847a1.942 1.942 0 0 1-1.956 2.089h-.521v-1.185h.324c.947 0 .852-.979.852-.979v-.312a1.54 1.54 0 0 1-1.176.511c-1.86 0-1.84-1.986-1.84-1.986a1.842 1.842 0 0 1 1.892-2.049 1.462 1.462 0 0 1 1.124.51v-.379h1.3z" transform="translate(-18.894 95.688)" style="fill:#fff"/>
        </g>
    </g>
</svg>
