<svg xmlns="http://www.w3.org/2000/svg" width="38" height="38" viewBox="0 0 38 38">
    <g transform="translate(-51 -132)">
        <circle data-name="타원 2" cx="19" cy="19" r="19" transform="translate(51 132)" style="fill:#727981"/>
        <path data-name="패스 6" d="M238.132 418a2.794 2.794 0 0 0-2.553-2.461c-.8-.119-4.646-.27-7.7-.27s-6.9.151-7.7.27a2.792 2.792 0 0 0-2.55 2.461 40.378 40.378 0 0 0-.323 4.642v.25a40.466 40.466 0 0 0 .323 4.644 2.789 2.789 0 0 0 2.55 2.457c.8.12 4.652.269 7.71.269h-.014c3.058 0 6.908-.151 7.709-.271a2.794 2.794 0 0 0 2.553-2.457 40.967 40.967 0 0 0 .32-4.644v-.25a40.878 40.878 0 0 0-.325-4.64zm-12.79 7.478v-5.418l5.07 2.647z" transform="translate(-157.878 -271.771)" style="fill:#fff"/>
    </g>
</svg>
