<svg xmlns="http://www.w3.org/2000/svg" width="186.2" height="60" viewBox="0 0 186.2 60">
    <g transform="translate(162 16.372)">
        <rect data-name="사각형 139" width="186.2" height="60" rx="30" transform="translate(-162 -16.372)" style="fill:#f0f0f0"/>
        <text data-name="DOWNLOAD" transform="translate(-138 18.628)" style="font-size:15px;font-family:NotoSansKR-Medium,Noto Sans KR;font-weight:500;fill:#1a1a1a"><tspan x="0" y="0" xml:space="preserve"> DOWNLOAD</tspan></text>
        <g data-name="그룹 236">
            <path data-name="패스 2" d="M105.87 138.015c.013.014.028.023.041.037a1.2 1.2 0 0 0 .125.11c.017.012.035.019.052.03a1.124 1.124 0 0 0 .134.076c.022.009.046.014.068.022a1 1 0 0 0 .13.041.84.84 0 0 0 .091.01.968.968 0 0 0 .113.012.956.956 0 0 0 .112-.012.848.848 0 0 0 .091-.01.919.919 0 0 0 .127-.041c.024-.008.048-.013.07-.022a1.023 1.023 0 0 0 .13-.074c.018-.011.038-.019.056-.032a1.147 1.147 0 0 0 .121-.107c.015-.014.031-.025.045-.04l3.585-3.939a1.268 1.268 0 0 0 0-1.674 1.009 1.009 0 0 0-1.523 0l-1.737 1.909v-5.632a1.075 1.075 0 1 0-2.148 0v5.632l-1.737-1.909a1.01 1.01 0 0 0-1.524 0 1.269 1.269 0 0 0 0 1.674z" transform="translate(-114.633 -123.384)" style="fill:#1a1a1a"/>
            <path data-name="패스 3" d="M108.325 202.187a.773.773 0 1 0-1.546 0c0 .683.158 1.61-.291 2.165-.309.382-.859.309-1.282.309h-8.738a1.655 1.655 0 0 1-1.282-.309c-.478-.435-.291-1.574-.291-2.165a.773.773 0 1 0-1.546 0 6.9 6.9 0 0 0 .3 2.7 2.526 2.526 0 0 0 2.335 1.419h9.7a2.638 2.638 0 0 0 2.335-1.419 5.5 5.5 0 0 0 .306-2.7z" transform="translate(-108.467 -185.433)" style="fill:#1a1a1a"/>
        </g>
    </g>
</svg>
