<svg xmlns="http://www.w3.org/2000/svg" width="38.181" height="38.005" viewBox="0 0 38.181 38.005">
    <g data-name="그룹 59">
        <path data-name="패스 39" d="M14.579 0a14.776 14.776 0 0 1 14.74 14.577 14.383 14.383 0 0 1-14.577 14.417A14.776 14.776 0 0 1 0 14.417 14.383 14.383 0 0 1 14.579 0z" transform="rotate(-22.5 28.2 5.615)" style="fill:#0d41f0"/>
        <g data-name="그룹 58">
            <path data-name="패스 2" d="M106.256 138.015c.014.014.03.023.046.037a1.285 1.285 0 0 0 .137.11c.018.012.038.019.057.03a1.273 1.273 0 0 0 .147.076c.024.009.05.014.075.022a1.173 1.173 0 0 0 .142.041c.033.006.066.006.1.01a1.165 1.165 0 0 0 .124.012 1.151 1.151 0 0 0 .123-.012c.034 0 .067 0 .1-.01a1.083 1.083 0 0 0 .14-.041c.026-.008.052-.013.077-.022a1.157 1.157 0 0 0 .143-.074c.02-.011.042-.019.062-.032a1.231 1.231 0 0 0 .133-.107c.016-.014.034-.025.05-.04l3.939-3.939a1.184 1.184 0 0 0-1.674-1.674l-1.909 1.909v-5.632a1.182 1.182 0 0 0-2.361 0v5.632l-1.909-1.909a1.184 1.184 0 0 0-1.674 1.674z" transform="translate(-87.818 -117.042)" style="fill:#fff"/>
            <path data-name="패스 3" d="M109.244 202.187a.821.821 0 0 0-1.641 0c0 .683.168 1.61-.309 2.165-.328.382-.912.309-1.36.309h-9.275a1.84 1.84 0 0 1-1.36-.309c-.507-.435-.309-1.574-.309-2.165a.821.821 0 0 0-1.64 0 6.528 6.528 0 0 0 .321 2.7 2.705 2.705 0 0 0 2.478 1.419h10.3a2.826 2.826 0 0 0 2.478-1.419 5.209 5.209 0 0 0 .317-2.7z" transform="translate(-82.042 -180.084)" style="fill:#fff"/>
        </g>
    </g>
</svg>
