<svg xmlns="http://www.w3.org/2000/svg" width="30.043" height="30.452" viewBox="0 0 30.043 30.452">
    <g data-name="그룹 23">
        <path data-name="패스 14" d="m213.479 217.092-7.075-6.768a.573.573 0 0 0-.42-.166.59.59 0 0 0-.414.179l-2.444 2.52a.59.59 0 0 0 .013.834l7.075 6.768a.59.59 0 0 0 .411.167h.009a.59.59 0 0 0 .414-.179l2.444-2.52a.59.59 0 0 0-.013-.835z" transform="translate(-183.615 -190.174)" style="fill:#2473ff"/>
        <g data-name="그룹 22">
            <path data-name="패스 15" d="M116.673 122.243c-.372 0-.813.01-1.326.01-.4 1.627-.844 3.355-1.1 4.359a8.261 8.261 0 0 1-1.577 0c-.372-1.456-.7-2.812-1.045-4.349h-.425a138.646 138.646 0 0 1-1.045 4.349 8.262 8.262 0 0 1-1.577 0c-.261-1-.7-2.732-1.1-4.359-.512 0-.954-.01-1.326-.01a14.025 14.025 0 0 1 0-1.456l.954-.02c-.211-.854-.392-1.587-.492-2.039a6.936 6.936 0 0 1 1.517-.412c.121.482.331 1.416.553 2.441.492 0 1.014 0 1.557-.01.161-.713.311-1.386.432-1.878a10.48 10.48 0 0 1 1.487 0c.121.492.271 1.165.432 1.878.542.01 1.065.01 1.557.01a90.49 90.49 0 0 1 .553-2.441 6.936 6.936 0 0 1 1.517.412c-.1.452-.281 1.185-.492 2.039l.954.02a11.7 11.7 0 0 1-.008 1.456zm-6.79.02H109c.171.8.321 1.547.412 2.019zm3.937 0h-.884l.472 2.019c.092-.472.241-1.215.412-2.019z" transform="translate(-98.348 -109.302)" style="fill:#a4c8fd"/>
        </g>
        <path data-name="패스 16" d="M53.978 46.975a8.849 8.849 0 1 1-8.849 8.849 8.859 8.859 0 0 1 8.849-8.849m0-4.129a12.978 12.978 0 1 0 12.979 12.978 12.978 12.978 0 0 0-12.979-12.978z" style="fill:#2473ff" transform="translate(-41 -42.846)"/>
    </g>
</svg>
