<?xml version="1.0" standalone="no"?>
<!DOCTYPE svg PUBLIC "-//W3C//DTD SVG 20010904//EN"
 "http://www.w3.org/TR/2001/REC-SVG-20010904/DTD/svg10.dtd">
<svg version="1.0" xmlns="http://www.w3.org/2000/svg"
 width="553.000000pt" height="160.000000pt" viewBox="0 0 553.000000 160.000000"
 preserveAspectRatio="xMidYMid meet">

<g transform="translate(0.000000,160.000000) scale(0.100000,-0.100000)"
fill="#000000" stroke="none">
<path d="M1000 1165 l0 -425 105 0 105 0 0 170 0 170 115 0 115 0 0 85 0 85
-115 0 -115 0 0 170 0 170 -105 0 -105 0 0 -425z"/>
<path d="M2490 1455 l0 -135 -140 0 -140 0 0 -90 0 -90 140 0 140 0 0 -205 0
-205 100 0 100 0 0 430 0 430 -100 0 -100 0 0 -135z"/>
<path d="M3940 1425 l0 -165 -65 0 -65 0 0 160 0 160 -95 0 -95 0 0 -405 0
-405 95 0 95 0 0 160 0 160 65 0 65 0 0 -190 0 -190 95 0 95 0 0 440 0 440
-95 0 -95 0 0 -165z"/>
<path d="M5320 1505 l0 -85 -145 0 -145 0 0 60 0 60 -350 0 -350 0 0 -355 0
-355 350 0 350 0 0 55 0 55 145 0 145 0 0 -100 0 -100 100 0 100 0 0 425 0
425 -100 0 -100 0 0 -85z m-490 -320 l0 -185 -150 0 -150 0 0 185 0 185 150 0
150 0 0 -185z m490 -5 l0 -70 -145 0 -145 0 0 70 0 70 145 0 145 0 0 -70z"/>
<path d="M350 1457 c0 -61 -6 -127 -16 -162 -32 -124 -133 -261 -261 -352 -72
-51 -72 -46 9 -136 l53 -58 55 37 c78 53 199 179 240 251 l35 60 34 -51 c19
-28 60 -76 91 -107 56 -54 174 -139 195 -139 11 0 100 115 107 137 2 6 -32 34
-75 63 -175 117 -257 274 -257 493 l0 67 -105 0 -105 0 0 -103z"/>
<path d="M1780 1473 c0 -125 -16 -207 -56 -291 -40 -83 -132 -187 -230 -259
l-63 -46 28 -36 c16 -20 45 -54 64 -76 l34 -39 44 28 c66 43 222 204 256 263
l29 52 45 -61 c24 -33 69 -83 99 -110 54 -48 166 -128 179 -128 7 0 111 144
111 152 0 3 -33 26 -74 52 -129 81 -218 200 -245 324 -6 29 -11 100 -11 157
l0 105 -105 0 -105 0 0 -87z"/>
<path d="M3120 1433 c-1 -217 -44 -327 -187 -471 -60 -61 -90 -98 -85 -106 17
-30 108 -135 116 -135 18 -2 204 196 233 248 l31 54 21 -41 c26 -50 125 -158
182 -198 l42 -29 27 33 c15 19 41 53 59 76 l31 44 -41 28 c-60 42 -136 129
-170 197 -41 80 -59 170 -59 300 l0 107 -100 0 -100 0 0 -107z"/>
<path d="M4949 722 c-103 -34 -186 -108 -226 -202 -8 -19 -17 -67 -20 -105
-19 -248 196 -419 472 -375 175 28 286 129 314 285 29 160 -54 312 -207 383
-76 35 -246 42 -333 14z m249 -173 c110 -54 132 -201 43 -290 -92 -93 -264
-70 -321 41 -22 43 -26 113 -9 157 14 37 57 82 94 99 47 21 142 17 193 -7z"/>
<path d="M2128 701 c-76 -25 -119 -53 -172 -112 -56 -62 -81 -131 -80 -224 0
-86 14 -137 55 -198 83 -126 267 -184 452 -143 218 49 331 237 268 447 -20 63
-31 81 -84 134 -82 82 -144 106 -282 111 -79 3 -112 0 -157 -15z m261 -184
c46 -30 81 -97 81 -152 0 -56 -35 -122 -83 -153 -35 -23 -51 -27 -117 -27 -67
0 -82 3 -119 28 -124 82 -101 267 40 327 13 5 54 8 91 6 52 -2 77 -9 107 -29z"/>
<path d="M3581 695 c-79 -23 -147 -63 -196 -117 -85 -95 -103 -236 -46 -353
17 -35 48 -78 68 -96 56 -48 148 -87 233 -97 260 -32 458 97 477 309 14 153
-76 284 -235 341 -76 27 -227 34 -301 13z m234 -174 c135 -62 136 -241 1 -305
-69 -33 -207 -16 -259 32 -83 75 -59 219 45 271 56 27 156 28 213 2z"/>
<path d="M355 667 c-3 -6 -4 -147 -3 -312 l3 -300 425 0 425 0 0 310 0 310
-423 3 c-335 2 -424 0 -427 -11z m645 -302 l0 -145 -222 2 -223 3 -3 129 c-1
72 0 136 2 143 4 10 54 13 226 13 l220 0 0 -145z"/>
</g>
</svg>
