<svg xmlns="http://www.w3.org/2000/svg" width="151.016" height="38.198" viewBox="0 0 151.016 38.198">
  <g id="logo" transform="translate(382.931 -592.406)">
    <g id="그룹_132" data-name="그룹 132" transform="translate(-840 218)">
      <g id="그룹_125" data-name="그룹 125" transform="translate(457.069 374.406)">
        <path id="패스_1" data-name="패스 1" d="M498.063,413.089c-.547-4.964,4.659-8.948,11.626-8.894s13.058,4.122,13.6,9.086-4.657,8.948-11.626,8.894-13.057-4.119-13.6-9.086m26.525,1.541c-.628-6.156-7.64-11.2-15.66-11.267s-14.009,4.873-13.379,11.03,7.641,11.2,15.661,11.267,14.007-4.874,13.378-11.031" transform="translate(-482.512 -393.51)" fill="#f69f98"/>
        <path id="패스_2" data-name="패스 2" d="M511.154,431.59c-3.95,4.124-10.287,4.468-14.155.763s-3.807-10.054.145-14.18,10.29-4.464,14.157-.762,3.805,10.053-.147,14.179m-14.631-13.549c-4.592,4.8-4.666,12.176-.171,16.483s11.867,3.906,16.458-.888,4.664-12.175.169-16.483-11.864-3.907-16.456.888" transform="translate(-481.184 -399.312)" fill="#f26f60"/>
        <path id="패스_3" data-name="패스 3" d="M483.2,385.372c8.214-3.082,16.338.037,18.142,6.955s-3.387,15.025-11.6,18.1-16.334-.037-18.143-6.957,3.39-15.025,11.6-18.1m-7.627,2.645c-8.524,6.745-10.691,16.522-4.848,21.836s17.494,4.15,26.018-2.6,10.69-16.527,4.845-21.837-17.493-4.15-26.015,2.6" transform="translate(-467.444 -382.084)" fill="#ed4726"/>
      </g>
      <g id="그룹_130" data-name="그룹 130" transform="translate(504.859 385.159)">
        <g id="그룹_126" data-name="그룹 126" transform="translate(0 0)">
          <path id="패스_4" data-name="패스 4" d="M601.048,412.224c0-.13,0-1.563,0-1.693h-2.268v-3.665h-2.215v10.816h2.215c0-.142,0-5.458,0-5.458Z" transform="translate(-584.571 -406.145)"/>
          <path id="패스_5" data-name="패스 5" d="M587.472,433h-8.323a1.317,1.317,0,0,1-1.061-.453,1.926,1.926,0,0,1-.36-1.4v-1.622h-2.221v2.489c0,.672.162,2.658,2.987,2.669h8.978Z" transform="translate(-573.264 -418.314)"/>
          <rect id="사각형_37" data-name="사각형 37" width="5.06" height="1.44" transform="translate(2.34)"/>
          <path id="패스_6" data-name="패스 6" d="M576.4,413.581c-2.5,0-4.21,1.448-4.21,3.233,0,1.564,1.706,3.236,4.21,3.236,2.549,0,4.211-1.715,4.211-3.236,0-1.785-1.635-3.233-4.211-3.233m-.015,5.088a2.007,2.007,0,0,1-2.1-1.918,2.135,2.135,0,0,1,4.218.012A2.025,2.025,0,0,1,576.386,418.669Z" transform="translate(-571.483 -409.751)"/>
          <path id="패스_7" data-name="패스 7" d="M580.516,409.505h-9.853c0,.088,0,1.39,0,1.39h9.853Z" transform="translate(-570.662 -407.563)"/>
        </g>
        <g id="그룹_127" data-name="그룹 127" transform="translate(18.466 0)">
          <rect id="사각형_38" data-name="사각형 38" width="5.06" height="1.44" transform="translate(2.457)"/>
          <path id="패스_8" data-name="패스 8" d="M624.875,412.143V406.86h-2.208v9.4a2.393,2.393,0,0,1-.934,1.983v-.007a5.534,5.534,0,0,1-2.467.538H616.8V416.3a3.574,3.574,0,0,0,2.99-3.091c0-1.785-1.633-3.233-4.211-3.233-2.493,0-4.21,1.448-4.21,3.233a3.614,3.614,0,0,0,3.216,3.142v2.426h-4.039v1.695c.11,0,5.924,0,8.8,0,.077,0,2.432-.009,3.257-.885a.422.422,0,0,0,.067-.093v3.023h2.208v-8.688h2.269v-1.682h-2.269m-9.31,2.917a2.005,2.005,0,0,1-2.092-1.918,2.134,2.134,0,0,1,4.216.012A2.025,2.025,0,0,1,615.566,415.06Z" transform="translate(-610.546 -406.142)"/>
          <path id="패스_9" data-name="패스 9" d="M620.651,409.505H610.8c0,.088,0,1.39,0,1.39h9.851Z" transform="translate(-610.682 -407.563)"/>
        </g>
        <path id="패스_10" data-name="패스 10" d="M667.479,433h-8.323a1.321,1.321,0,0,1-1.062-.453,1.931,1.931,0,0,1-.359-1.4v-1.622h-2.218v2.489c0,.672.162,2.658,2.984,2.669h8.978Z" transform="translate(-616.229 -418.314)"/>
        <rect id="사각형_39" data-name="사각형 39" width="4.135" height="1.446" transform="translate(57.14 0)"/>
        <path id="패스_11" data-name="패스 11" d="M697.689,409.523h-8.405c0,.09,0,1.4,0,1.4h8.405Z" transform="translate(-634.362 -407.572)"/>
        <path id="패스_12" data-name="패스 12" d="M660.178,421.66v-2.3h-2.209v2.3h-6.883v1.663h16.029V421.66Z" transform="translate(-613.849 -412.856)"/>
        <path id="패스_13" data-name="패스 13" d="M694.091,413.577c-2.267,0-3.75,2.09-3.75,4.668s1.483,4.668,3.75,4.668,3.752-2.089,3.752-4.668-1.483-4.668-3.752-4.668m.018,7.691c-1.145,0-1.65-1.446-1.65-3.066s.506-3,1.65-3,1.649,1.378,1.649,3S695.253,421.268,694.109,421.268Z" transform="translate(-634.93 -409.749)"/>
        <path id="패스_14" data-name="패스 14" d="M711.549,413.9h1.421v8.6h1.785V406.854h-1.785v5.412h-1.42v-5.412h-1.783V422.5h1.783C711.55,420.773,711.549,413.9,711.549,413.9Z" transform="translate(-645.361 -406.139)"/>
        <path id="패스_15" data-name="패스 15" d="M661.7,406.85h-2.584c-.045,1.227-.957,4.32-5.638,5.285v1.6a9.584,9.584,0,0,0,6.908-3.841,9.777,9.777,0,0,0,6.919,3.841v-1.591C663.084,411.407,661.691,408.277,661.7,406.85Z" transform="translate(-615.132 -406.137)"/>
        <g id="그룹_128" data-name="그룹 128" transform="translate(89.57 0.718)">
          <path id="패스_16" data-name="패스 16" d="M786.468,406.86v3h-2.094v1.573h2.094v3.315h2.183V406.86Z" transform="translate(-774.995 -406.86)"/>
          <path id="패스_17" data-name="패스 17" d="M778.108,424.456c-2.58,0-4.672,1.747-4.672,3.908s2.092,3.9,4.672,3.9,4.67-1.747,4.67-3.9-2.09-3.908-4.67-3.908m-.008,6.283a2.394,2.394,0,1,1,2.585-2.386A2.451,2.451,0,0,1,778.1,430.739Z" transform="translate(-769.122 -416.309)"/>
          <path id="패스_18" data-name="패스 18" d="M772.749,407.18H764.39c0,.1,0,1.579,0,1.579H767.5c-.01.134-.021.257-.037.36a6.678,6.678,0,0,1-.173.807c-.346,1.232-1.54,3.117-3.171,3.211v1.77a5.133,5.133,0,0,0,4.445-2.977,5.139,5.139,0,0,0,4.443,2.993v-1.786c-1.631-.094-2.824-1.979-3.168-3.211a4.148,4.148,0,0,1-.17-.695c-.018-.148-.03-.307-.039-.472h3.121Z" transform="translate(-764.118 -407.032)"/>
        </g>
        <g id="그룹_129" data-name="그룹 129" transform="translate(71.565 0.718)">
          <path id="패스_19" data-name="패스 19" d="M749.907,422.289V406.86h2.177v5.21h2.231v1.686h-2.234v8.533Z" transform="translate(-738.482 -406.86)"/>
          <path id="패스_20" data-name="패스 20" d="M735.082,416.834s-3.837-.681-3.813-7.652c0-.121,0-1.876,0-2h-2.207c0,.131,0,1.877,0,2,.018,6.905-3.767,7.66-3.831,7.676v1.864a8.054,8.054,0,0,0,4.925-4.132,8.044,8.044,0,0,0,4.926,4.132v-1.887Z" transform="translate(-725.231 -407.032)"/>
        </g>
      </g>
    </g>
  </g>
</svg>
