<svg id="그룹_1" data-name="그룹 1" xmlns="http://www.w3.org/2000/svg" xmlns:xlink="http://www.w3.org/1999/xlink" width="72" height="72" viewBox="0 0 72 72">
  <defs>
    <clipPath id="clip-path">
      <rect id="사각형_4347" data-name="사각형 4347" width="72" height="72" fill="none"/>
    </clipPath>
  </defs>
  <g id="그룹_12634" data-name="그룹 12634">
    <g id="그룹_12633" data-name="그룹 12633" clip-path="url(#clip-path)">
      <path id="패스_8279" data-name="패스 8279" d="M72,36A36,36,0,1,1,36,0,36,36,0,0,1,72,36" transform="translate(0 0.001)" fill="#e9faff"/>
    </g>
  </g>
  <g id="그룹_12636" data-name="그룹 12636">
    <g id="그룹_12635" data-name="그룹 12635" clip-path="url(#clip-path)">
      <path id="패스_8280" data-name="패스 8280" d="M69.412,195.225a1.565,1.565,0,0,1-1.565-1.565v-.445a2.885,2.885,0,0,0-4.079-2.64c-2.134,1.006-8.808,7.572-8.808,7.572l-15.209-5.113L23.76,198.146s-6.674-6.566-8.808-7.572a2.885,2.885,0,0,0-4.079,2.64v.445a1.565,1.565,0,0,1-1.565,1.565H4.223a36,36,0,0,0,70.274,0Z" transform="translate(-3.36 -151.399)" fill="#ffd0ca"/>
      <path id="패스_8281" data-name="패스 8281" d="M38.108,223.371a36.006,36.006,0,0,0,33.885-28.146h-2.58a1.565,1.565,0,0,1-1.565-1.565v-.445a2.885,2.885,0,0,0-4.079-2.64c-2.134,1.006-8.808,7.572-8.808,7.572l-1.861-.625c-.4.389-.643.625-.643.625l-13.988-4.7-14.708,4.7s-6.674-6.566-8.808-7.572a2.885,2.885,0,0,0-4.079,2.64v.445a1.565,1.565,0,0,1-1.565,1.565H4.223a36.006,36.006,0,0,0,33.885,28.146" transform="translate(-3.36 -151.399)" fill="#ffe5e1"/>
      <path id="패스_8282" data-name="패스 8282" d="M118.862,217.845c.051.571.1,1.14.156,1.7.539,5.639,1.086,9.384,3.665,10.028a3.477,3.477,0,0,0,.851.1,4.662,4.662,0,0,0,2.689-.966c2.406-1.736,4.151-5.363,4.446-9.24.123-1.623.16-3.426.2-5.173a56.974,56.974,0,0,1,.508-7.893c-1.409,1.317-2.469,2.36-2.469,2.36L113.7,203.656,97.7,208.769s-.2-.2-.535-.521c.178,1.864.223,3.992.267,6.083.039,1.823.075,3.544.2,5.145.3,3.876,2.041,7.5,4.447,9.238a4.593,4.593,0,0,0,2.688.966,3.485,3.485,0,0,0,.849-.1c2.581-.645,3.128-4.39,3.667-10.03l.094-1c.691-7.378,1.444-12.6,4.885-12.6,3.278,0,3.973,4.933,4.6,11.9" transform="translate(-77.304 -162.021)" fill="#ffd0ca"/>
      <path id="패스_8283" data-name="패스 8283" d="M101.406,127.286a2.2,2.2,0,0,1-.537-.066c-1.759-.439-2.248-4.13-2.7-8.909-.053-.56-.1-1.126-.155-1.695-.576-6.426-1.172-13.067-5.872-13.067-4.871,0-5.526,7-6.159,13.76l-.094,1c-.457,4.778-.945,8.47-2.7,8.909a2.216,2.216,0,0,1-.539.066,3.355,3.355,0,0,1-1.94-.725c-2.081-1.5-3.656-4.836-3.919-8.3-.119-1.561-.155-3.268-.193-5.075-.081-3.857-.164-7.822-1.086-10.28a23.333,23.333,0,0,0-2.255-4.238c-1.844-2.951-3.749-6-2.863-11.757,1.016-6.6,6.015-10.236,14.075-10.236a18.4,18.4,0,0,1,5.749,1.114,6.44,6.44,0,0,0,3.978.074,24.344,24.344,0,0,1,5.4-1.189c8.06,0,13.059,3.636,14.075,10.236.886,5.758-1.019,8.806-2.862,11.754a23.313,23.313,0,0,0-2.257,4.241c-.921,2.456-1.005,6.42-1.086,10.254-.038,1.815-.074,3.528-.193,5.1-.264,3.462-1.838,6.8-3.919,8.3a3.4,3.4,0,0,1-1.94.724" transform="translate(-55.817 -61.002)" fill="#e8f0fc"/>
      <path id="패스_8284" data-name="패스 8284" d="M111.1,86.914c-.952-6.185-5.4-9.767-12.589-10.193A24.553,24.553,0,0,0,94,77.886a5.553,5.553,0,0,1-3.588-.023,18.65,18.65,0,0,0-5.951-1.184c-8.06,0-13.059,3.636-14.075,10.236C69.5,92.672,71.4,95.72,73.248,98.671a23.332,23.332,0,0,1,2.255,4.238c.922,2.459,1.005,6.423,1.086,10.28.038,1.807.074,3.514.193,5.075.264,3.462,1.838,6.8,3.919,8.3a4.7,4.7,0,0,0,.534.333c1.267-1.078,1.69-4.416,2.088-8.583l.094-1c.633-6.765,1.288-13.76,6.159-13.76a4.2,4.2,0,0,1,1.27.188,4.311,4.311,0,0,1,1.289-.188c4.7,0,5.3,6.641,5.872,13.067.05.569.1,1.135.155,1.695.4,4.166.821,7.5,2.088,8.582a4.592,4.592,0,0,0,.535-.331c2.081-1.5,3.656-4.837,3.919-8.3.119-1.572.156-3.285.193-5.1.081-3.834.165-7.8,1.087-10.254a23.313,23.313,0,0,1,2.257-4.241c1.843-2.948,3.747-6,2.862-11.754" transform="translate(-55.817 -61.002)" fill="#fff"/>
      <path id="패스_8285" data-name="패스 8285" d="M70.385,116.415c-.886,5.757,1.019,8.806,2.863,11.757A23.326,23.326,0,0,1,75.5,132.41c.922,2.459,1.005,6.423,1.087,10.28.038,1.807.074,3.514.193,5.074a12.225,12.225,0,0,0,3.452,7.919V136.336A28.257,28.257,0,0,0,75.778,121.1l-4.7-7.345a13.34,13.34,0,0,0-.692,2.655" transform="translate(-55.818 -90.503)" fill="#ffdcb4"/>
      <path id="패스_8286" data-name="패스 8286" d="M245.662,116.415c.886,5.757-1.019,8.806-2.863,11.757a23.337,23.337,0,0,0-2.255,4.238c-.922,2.459-1.005,6.423-1.087,10.28-.038,1.807-.074,3.514-.193,5.074a12.224,12.224,0,0,1-3.452,7.919V136.336a28.255,28.255,0,0,1,4.457-15.231l4.7-7.345a13.34,13.34,0,0,1,.692,2.655" transform="translate(-187.603 -90.503)" fill="#ffcba4"/>
      <path id="패스_8287" data-name="패스 8287" d="M283.628,230.626a.939.939,0,1,1-.939-.939.939.939,0,0,1,.939.939" transform="translate(-224.149 -182.731)" fill="#ff859e"/>
      <path id="패스_8288" data-name="패스 8288" d="M284.88,271.065a1.565,1.565,0,1,1-1.565-1.565,1.565,1.565,0,0,1,1.565,1.565" transform="translate(-224.149 -214.404)" fill="#ff859e"/>
      <path id="패스_8289" data-name="패스 8289" d="M314.253,236.751a.939.939,0,1,1-.939-.939.939.939,0,0,1,.939.939" transform="translate(-248.513 -187.603)" fill="#ff859e"/>
      <path id="패스_8290" data-name="패스 8290" d="M174.63,237.377a1.565,1.565,0,1,1-1.565-1.565,1.565,1.565,0,0,1,1.565,1.565" transform="translate(-136.438 -187.603)" fill="#ff859e"/>
      <path id="패스_8291" data-name="패스 8291" d="M164.817,298.314a1.252,1.252,0,1,1-1.252-1.252,1.252,1.252,0,0,1,1.252,1.252" transform="translate(-129.13 -236.332)" fill="#ff859e"/>
      <path id="패스_8292" data-name="패스 8292" d="M188.065,279.313a.626.626,0,1,1-.626-.626.626.626,0,0,1,.626.626" transform="translate(-148.622 -221.713)" fill="#ff859e"/>
      <path id="패스_8293" data-name="패스 8293" d="M55.193,212.877a1.565,1.565,0,1,1-1.565-1.565,1.565,1.565,0,0,1,1.565,1.565" transform="translate(-41.419 -168.112)" fill="#ff859e"/>
      <path id="패스_8294" data-name="패스 8294" d="M79.067,243.189a1.252,1.252,0,1,1-1.252-1.252,1.252,1.252,0,0,1,1.252,1.252" transform="translate(-60.911 -192.476)" fill="#ff859e"/>
      <path id="패스_8295" data-name="패스 8295" d="M47.815,264.313a.939.939,0,1,1-.939-.939.939.939,0,0,1,.939.939" transform="translate(-36.546 -209.531)" fill="#ff859e"/>
      <path id="패스_8296" data-name="패스 8296" d="M242.955,129.167l-2.685,4.2a28.255,28.255,0,0,0-4.457,15.231v14.8a14.262,14.262,0,0,0,.681-3.375c.119-1.572.156-3.284.193-5.1.081-3.834.165-7.8,1.086-10.254a23.294,23.294,0,0,1,2.257-4.241c1.788-2.861,3.627-5.825,2.925-11.26" transform="translate(-187.604 -102.761)" fill="#ffdcb4"/>
      <path id="패스_8297" data-name="패스 8297" d="M98.96,125.477a2.807,2.807,0,0,1-.69-.084c-2.16-.54-2.679-4.26-3.175-9.457-.054-.561-.1-1.129-.156-1.7-.55-6.144-1.12-12.5-5.249-12.5-4.3,0-4.929,6.708-5.536,13.2l-.094,1c-.5,5.2-1.014,8.918-3.174,9.457a3.605,3.605,0,0,1-3-.759c-2.222-1.6-3.9-5.123-4.177-8.758-.121-1.585-.157-3.309-.2-5.134-.08-3.782-.163-7.692-1.046-10.048a22.793,22.793,0,0,0-2.2-4.128c-1.9-3.045-3.871-6.194-2.949-12.182,1.067-6.943,6.286-10.767,14.693-10.767a18.525,18.525,0,0,1,6.262,1.173,4.329,4.329,0,0,0,2.8.025,21.731,21.731,0,0,1,6.071-1.2c8.414.064,13.631,3.888,14.689,10.767.921,5.988-1.047,9.137-2.95,12.182a22.823,22.823,0,0,0-2.2,4.128c-.884,2.357-.966,6.268-1.046,10.05-.038,1.824-.075,3.547-.2,5.132-.277,3.635-1.956,7.155-4.178,8.758a3.982,3.982,0,0,1-2.306.843m-9.269-24.99c5.273,0,5.895,6.933,6.5,13.638.051.567.1,1.133.155,1.692.3,3.183.764,7.994,2.232,8.362a2.5,2.5,0,0,0,1.96-.559c1.614-1.165,3.372-4.04,3.662-7.838.118-1.55.154-3.256.192-5.062.082-3.887.166-7.907,1.125-10.465a24.131,24.131,0,0,1,2.312-4.351c1.864-2.982,3.624-5.8,2.774-11.328-.967-6.289-5.622-9.646-13.461-9.705h-.058a20.127,20.127,0,0,0-5.613,1.136,5.582,5.582,0,0,1-3.615-.037,17.277,17.277,0,0,0-5.838-1.1c-7.827,0-12.479,3.356-13.456,9.705-.85,5.528.91,8.345,2.774,11.328a24.151,24.151,0,0,1,2.312,4.351c.959,2.557,1.043,6.575,1.126,10.461.038,1.808.074,3.515.192,5.066.288,3.8,2.047,6.673,3.661,7.838a2.49,2.49,0,0,0,1.961.56c1.469-.367,1.928-5.179,2.232-8.362l.094-1c.629-6.718,1.341-14.331,6.783-14.331" transform="translate(-53.371 -58.567)" fill="#556193"/>
      <path id="패스_8298" data-name="패스 8298" d="M22.4,196.164c-1.835-1.806-6.964-6.664-8.636-7.452a2.165,2.165,0,0,0-2.119.14,2.281,2.281,0,0,0-1.068,1.934v.444a2.194,2.194,0,0,1-2.191,2.191H3.062V192.17H8.384a.94.94,0,0,0,.939-.939v-.444a3.527,3.527,0,0,1,1.649-2.992,3.441,3.441,0,0,1,3.324-.215c2.2,1.039,8.7,7.421,8.979,7.692Z" transform="translate(-2.436 -148.97)" fill="#556193"/>
      <path id="패스_8299" data-name="패스 8299" d="M252.692,195.857l-.873-.9c1.98-1.925,6.789-6.5,8.66-7.379a3.441,3.441,0,0,1,3.324.215,3.527,3.527,0,0,1,1.649,2.992v.444a.94.94,0,0,0,.939.939h5.322v1.252H266.39a2.194,2.194,0,0,1-2.191-2.191v-.444a2.281,2.281,0,0,0-1.067-1.934,2.167,2.167,0,0,0-2.119-.14c-1.389.655-5.209,4.12-8.321,7.144" transform="translate(-200.338 -148.97)" fill="#556193"/>
    </g>
  </g>
</svg>
