<svg xmlns="http://www.w3.org/2000/svg" xmlns:xlink="http://www.w3.org/1999/xlink" width="80" height="80" viewBox="0 0 80 80">
  <defs>
    <clipPath id="clip-path">
      <rect id="사각형_4355" data-name="사각형 4355" width="80" height="80" transform="translate(145 165)" fill="#fff" stroke="#707070" stroke-width="1"/>
    </clipPath>
    <clipPath id="clip-path-2">
      <rect id="사각형_4353" data-name="사각형 4353" width="68" height="66" transform="translate(0 0.172)" fill="none"/>
    </clipPath>
  </defs>
  <g id="마스크_그룹_1" data-name="마스크 그룹 1" transform="translate(-145 -165)" clip-path="url(#clip-path)">
    <g id="그룹_12640" data-name="그룹 12640" transform="translate(151 171.828)">
      <rect id="사각형_4349" data-name="사각형 4349" width="66.536" height="64.645" transform="translate(0.763 0.763)" fill="#b5d5fa"/>
      <rect id="사각형_4350" data-name="사각형 4350" width="64.245" height="61.591" transform="translate(0.763 0.763)" fill="#d4e6ff"/>
      <g id="그룹_12639" data-name="그룹 12639">
        <g id="그룹_12638" data-name="그룹 12638" clip-path="url(#clip-path-2)">
          <path id="패스_8300" data-name="패스 8300" d="M113.919,156.188H88.981l-.276.462a10.26,10.26,0,0,1,.778,1.537c.589,1.5.645,4.064.7,6.55.027,1.211.052,2.355.137,3.418a8.4,8.4,0,0,0,3.1,6.138,3.292,3.292,0,0,0,1.871.642,2.548,2.548,0,0,0,.591-.069c1.8-.429,2.178-2.917,2.553-6.664l.066-.667c.48-4.9,1.005-8.371,3.4-8.371,2.281,0,2.765,3.278,3.2,7.907.035.379.071.758.108,1.131.375,3.747.756,6.235,2.551,6.663a2.524,2.524,0,0,0,.592.069,3.342,3.342,0,0,0,1.872-.642,8.4,8.4,0,0,0,3.095-6.138c.086-1.079.112-2.277.137-3.437.055-2.475.112-5.034.7-6.53a9.572,9.572,0,0,1,.583-1.2,9.109,9.109,0,0,1-.814-.8" transform="translate(-66.554 -116.946)" fill="#c5d9f9"/>
          <path id="패스_8301" data-name="패스 8301" d="M99.644,125.5a1.452,1.452,0,0,1-.355-.043c-1.162-.292-1.485-2.744-1.786-5.92-.035-.372-.069-.748-.1-1.126-.381-4.269-.774-8.682-3.878-8.682-3.217,0-3.649,4.648-4.067,9.142l-.062.667c-.3,3.175-.624,5.627-1.785,5.919a1.461,1.461,0,0,1-.356.043,2.207,2.207,0,0,1-1.281-.482,7.8,7.8,0,0,1-2.588-5.513c-.078-1.037-.1-2.171-.128-3.371-.054-2.562-.108-5.2-.717-6.83a15.535,15.535,0,0,0-1.489-2.816c-1.218-1.96-2.476-3.986-1.891-7.811.671-4.386,3.972-6.8,9.295-6.8a12.33,12.33,0,0,1,4.85,1.087l.977.42-.256-.592a12.027,12.027,0,0,1,4.419-.916c5.323,0,8.624,2.415,9.295,6.8.585,3.825-.673,5.851-1.89,7.809a15.544,15.544,0,0,0-1.49,2.818c-.609,1.632-.664,4.266-.717,6.813-.025,1.206-.049,2.344-.127,3.389a7.8,7.8,0,0,1-2.588,5.514,2.239,2.239,0,0,1-1.281.481" transform="translate(-59.281 -68.792)" fill="#e8f0fc"/>
          <path id="패스_8302" data-name="패스 8302" d="M106.049,98.676c-.629-4.11-3.567-6.489-8.313-6.772a12.5,12.5,0,0,0-3.71.887l-.721.172a12.327,12.327,0,0,0-4.85-1.088c-5.323,0-8.624,2.415-9.295,6.8-.585,3.825.673,5.851,1.891,7.811a15.564,15.564,0,0,1,1.489,2.816c.609,1.634.664,4.268.717,6.83.025,1.2.049,2.335.127,3.372a7.8,7.8,0,0,0,2.588,5.513,3.094,3.094,0,0,0,.353.221c.837-.717,1.116-2.934,1.379-5.7l.062-.667c.418-4.494.851-9.142,4.067-9.142a2.757,2.757,0,0,1,.839.125,2.829,2.829,0,0,1,.851-.125c3.1,0,3.5,4.413,3.878,8.682.033.378.067.754.1,1.126.263,2.768.542,4.985,1.379,5.7a3.025,3.025,0,0,0,.353-.22,7.8,7.8,0,0,0,2.588-5.513c.079-1.045.1-2.182.127-3.389.054-2.547.109-5.181.717-6.813a15.528,15.528,0,0,1,1.49-2.818c1.217-1.959,2.475-3.984,1.89-7.809" transform="translate(-59.281 -68.792)" fill="#fff"/>
          <path id="패스_8303" data-name="패스 8303" d="M97.339,123.977a2.206,2.206,0,0,1-.544-.068c-1.653-.416-2.008-2.88-2.361-6.592l-.1-1.131c-.416-4.673-.883-7.982-3.116-7.982-2.521,0-2.938,4.488-3.306,8.447l-.063.664c-.352,3.712-.706,6.176-2.36,6.593a2.7,2.7,0,0,1-2.27-.56,8.472,8.472,0,0,1-2.9-6.079c-.08-1.063-.105-2.265-.13-3.427-.052-2.484-.106-5.053-.669-6.563a14.947,14.947,0,0,0-1.422-2.68c-1.291-2.078-2.626-4.227-2-8.335.735-4.806,4.3-7.453,10.05-7.453a13.066,13.066,0,0,1,5,1.088,12.954,12.954,0,0,1,4.99-1.088c5.747,0,9.316,2.647,10.051,7.453.628,4.108-.706,6.257-2,8.335a14.878,14.878,0,0,0-1.423,2.68c-.563,1.509-.617,4.077-.668,6.56-.025,1.164-.049,2.367-.13,3.43a8.475,8.475,0,0,1-2.9,6.08,2.957,2.957,0,0,1-1.725.627m-6.123-17.311c3.8,0,4.247,4.985,4.639,9.384l.1,1.121c.144,1.515.482,5.062,1.211,5.246a1.288,1.288,0,0,0,1-.315,7.035,7.035,0,0,0,2.274-4.949c.077-1.02.1-2.149.126-3.345.054-2.612.111-5.313.765-7.069a16.331,16.331,0,0,1,1.558-2.954c1.195-1.925,2.324-3.742,1.783-7.285-.615-4.022-3.568-6.149-8.539-6.149a10.539,10.539,0,0,0-3.075.488,18.3,18.3,0,0,1,2.883,1.988l-1.006,1.16c-.042-.037-4.2-3.636-8.792-3.636-4.971,0-7.924,2.126-8.538,6.149-.542,3.543.587,5.36,1.782,7.285a16.316,16.316,0,0,1,1.558,2.954c.654,1.756.711,4.458.766,7.071.025,1.195.049,2.323.125,3.343a7.038,7.038,0,0,0,2.273,4.948,1.293,1.293,0,0,0,1,.315c.729-.184,1.065-3.731,1.209-5.246l.062-.662c.429-4.614.915-9.843,4.829-9.843" transform="translate(-56.973 -66.499)" fill="#556193"/>
          <path id="패스_8304" data-name="패스 8304" d="M197.576,155.5h-6.96a10.59,10.59,0,0,1-5.89-1.784l-1.915-1.275.844-1.284,1.915,1.275a9.067,9.067,0,0,0,5.046,1.529h6.96Z" transform="translate(-137.161 -113.177)" fill="#556193"/>
          <path id="패스_8305" data-name="패스 8305" d="M38.335,155.5h-6.96v-1.539h6.96a9.069,9.069,0,0,0,5.046-1.529l1.915-1.275.844,1.284-1.915,1.275a10.594,10.594,0,0,1-5.89,1.784" transform="translate(-23.54 -113.177)" fill="#556193"/>
          <path id="패스_8306" data-name="패스 8306" d="M66.246,66.172H1.816A1.824,1.824,0,0,1,0,64.345V1.827A1.824,1.824,0,0,1,1.816,0h64.43a1.824,1.824,0,0,1,1.816,1.827V64.345a1.824,1.824,0,0,1-1.816,1.827M1.816,1.539a.288.288,0,0,0-.287.288V64.345a.288.288,0,0,0,.287.288h64.43a.288.288,0,0,0,.287-.288V1.827a.288.288,0,0,0-.287-.288Z" fill="#556193"/>
          <path id="패스_8307" data-name="패스 8307" d="M77.722,32.164H75.276V30.625h2.447Zm-4.894,0H70.381V30.625h2.447Zm-4.895,0H65.486V30.625h2.447Zm-4.894,0H60.592V30.625H63.04Zm-4.895,0H55.7V30.625h2.447Zm-4.895,0H50.8V30.625H53.25Zm-4.894,0H45.909V30.625h2.447Zm-4.895,0H41.014V30.625h2.447Zm-4.894,0H36.12V30.625h2.447Zm-4.895,0H31.226V30.625h2.447Zm-4.895,0H26.332V30.625h2.447Zm-4.894,0H21.437V30.625h2.447Z" transform="translate(-16.084 -22.931)" fill="#c5d9f9"/>
          <path id="패스_8308" data-name="패스 8308" d="M157.826,113.9l-1.42-.571,1.777-4.471,3.184.8,2.76-4.166,1.273.853-3.358,5.068-2.934-.738Z" transform="translate(-117.349 -78.985)" fill="#556193"/>
          <rect id="사각형_4351" data-name="사각형 4351" width="15.295" height="1.539" transform="translate(7.647 13.85)" fill="#556193"/>
          <rect id="사각형_4352" data-name="사각형 4352" width="7.647" height="1.539" transform="translate(7.647 19.236)" fill="#556193"/>
        </g>
      </g>
    </g>
  </g>
</svg>
