<svg xmlns="http://www.w3.org/2000/svg" xmlns:xlink="http://www.w3.org/1999/xlink" width="80" height="80" viewBox="0 0 80 80">
  <defs>
    <clipPath id="clip-path">
      <rect id="사각형_4354" data-name="사각형 4354" width="80" height="80" transform="translate(148 178)" fill="#fff" stroke="#707070" stroke-width="1"/>
    </clipPath>
    <clipPath id="clip-path-2">
      <rect id="사각형_4345" data-name="사각형 4345" width="72" height="72" fill="none"/>
    </clipPath>
  </defs>
  <g id="마스크_그룹_1" data-name="마스크 그룹 1" transform="translate(-148 -178)" clip-path="url(#clip-path)">
    <g id="그룹_12632" data-name="그룹 12632" transform="translate(152 182)">
      <g id="그룹_12629" data-name="그룹 12629">
        <g id="그룹_12628" data-name="그룹 12628" clip-path="url(#clip-path-2)">
          <path id="패스_8269" data-name="패스 8269" d="M72,36A36,36,0,1,1,36,0,36,36,0,0,1,72,36" transform="translate(0 0.001)" fill="#e9faff"/>
        </g>
      </g>
      <g id="그룹_12631" data-name="그룹 12631">
        <g id="그룹_12630" data-name="그룹 12630" clip-path="url(#clip-path-2)">
          <path id="패스_8270" data-name="패스 8270" d="M57.76,192.937H21.932c-2.569,3.476-10.069,4.763-17.5,4.568a36.025,36.025,0,0,0,28.9,27.446,41.35,41.35,0,0,0,12.4,0A36.026,36.026,0,0,0,74.58,197.678c-7,.443-13.865-1.263-16.821-4.742" transform="translate(-3.526 -153.494)" fill="#ffd0ca"/>
          <path id="패스_8271" data-name="패스 8271" d="M11.232,197.259a41.051,41.051,0,0,1-6.511.486,36.024,36.024,0,0,0,28.838,27.207,42.043,42.043,0,0,0,5.27.449,41.618,41.618,0,0,0,5.189-.439,36.024,36.024,0,0,0,28.9-27.221,33.242,33.242,0,0,1-3.4-.141c-5.7-.113-8.739-1.384-11.524-4.662H22.162c-1.8,2.433-6.015,3.79-10.93,4.321" transform="translate(-3.756 -153.494)" fill="#ffe5e1"/>
          <path id="패스_8272" data-name="패스 8272" d="M124.03,192.937H88.2c-.147.2-.308.383-.47.568a16.136,16.136,0,0,1,1.191,2.441c.845,2.253.927,6.117,1.005,9.858.039,1.823.075,3.544.2,5.145.295,3.876,2.04,7.5,4.447,9.238a4.592,4.592,0,0,0,2.688.967,3.481,3.481,0,0,0,.848-.1c2.582-.645,3.128-4.39,3.668-10.03l.094-1c.69-7.378,1.445-12.6,4.885-12.6,3.278,0,3.973,4.933,4.6,11.9.051.571.1,1.14.156,1.7.539,5.639,1.086,9.384,3.665,10.028a3.473,3.473,0,0,0,.851.1,4.661,4.661,0,0,0,2.689-.966c2.406-1.736,4.151-5.363,4.446-9.239.123-1.623.16-3.426.2-5.173.079-3.725.161-7.577,1.005-9.829a14.669,14.669,0,0,1,.838-1.806,13.328,13.328,0,0,1-1.17-1.2" transform="translate(-69.796 -153.494)" fill="#ffd0ca"/>
          <path id="패스_8273" data-name="패스 8273" d="M101.406,127.286a2.2,2.2,0,0,1-.537-.066c-1.759-.439-2.248-4.13-2.7-8.909-.053-.56-.1-1.126-.155-1.695-.576-6.426-1.172-13.067-5.872-13.067-4.871,0-5.526,7-6.159,13.76l-.094,1c-.457,4.778-.945,8.47-2.7,8.909a2.216,2.216,0,0,1-.539.066,3.355,3.355,0,0,1-1.94-.725c-2.081-1.5-3.656-4.836-3.919-8.3-.119-1.561-.155-3.268-.193-5.075-.081-3.857-.164-7.822-1.086-10.28a23.333,23.333,0,0,0-2.255-4.238c-1.844-2.951-3.749-6-2.863-11.757,1.016-6.6,6.015-10.236,14.075-10.236a18.393,18.393,0,0,1,5.749,1.114,6.44,6.44,0,0,0,3.978.074,24.344,24.344,0,0,1,5.4-1.189c8.06,0,13.059,3.635,14.075,10.236.886,5.758-1.019,8.806-2.862,11.754a23.314,23.314,0,0,0-2.257,4.241c-.921,2.456-1.005,6.42-1.086,10.254-.038,1.815-.074,3.528-.193,5.1-.264,3.462-1.838,6.8-3.919,8.3a3.4,3.4,0,0,1-1.94.724" transform="translate(-55.817 -61.002)" fill="#e8f0fc"/>
          <path id="패스_8274" data-name="패스 8274" d="M111.1,86.914c-.952-6.185-5.4-9.767-12.589-10.193A24.559,24.559,0,0,0,94,77.886a5.553,5.553,0,0,1-3.588-.023,18.65,18.65,0,0,0-5.951-1.184c-8.06,0-13.059,3.635-14.075,10.236C69.5,92.672,71.4,95.72,73.248,98.671a23.319,23.319,0,0,1,2.255,4.238c.922,2.459,1.005,6.423,1.087,10.28.038,1.807.074,3.514.193,5.075.264,3.462,1.838,6.8,3.919,8.3a4.7,4.7,0,0,0,.534.333c1.267-1.078,1.69-4.416,2.088-8.583l.094-1c.633-6.765,1.288-13.76,6.159-13.76a4.2,4.2,0,0,1,1.27.188,4.31,4.31,0,0,1,1.289-.188c4.7,0,5.3,6.641,5.872,13.067.05.569.1,1.135.155,1.695.4,4.166.821,7.5,2.088,8.582a4.61,4.61,0,0,0,.535-.331c2.081-1.5,3.656-4.837,3.919-8.3.119-1.572.156-3.285.193-5.1.081-3.834.165-7.8,1.087-10.254a23.314,23.314,0,0,1,2.257-4.241c1.843-2.948,3.747-6,2.862-11.754" transform="translate(-55.817 -61.002)" fill="#fff"/>
          <path id="패스_8275" data-name="패스 8275" d="M125.126,167.948H114.454a3.8,3.8,0,0,1-3.625-2.643l-.461-1.434a.439.439,0,0,0-.419-.306h-6.583a.439.439,0,0,0-.42.306l-.461,1.434a3.8,3.8,0,0,1-3.625,2.643H88.813V166.7H98.859a2.548,2.548,0,0,0,2.432-1.773l.461-1.434a1.687,1.687,0,0,1,1.612-1.175h6.583a1.687,1.687,0,0,1,1.612,1.175l.461,1.434a2.548,2.548,0,0,0,2.433,1.773h10.672Z" transform="translate(-70.656 -129.13)" fill="#c5d9f9"/>
          <path id="패스_8276" data-name="패스 8276" d="M98.96,125.477a2.807,2.807,0,0,1-.69-.084c-2.16-.54-2.679-4.26-3.175-9.457-.054-.561-.1-1.129-.156-1.7-.55-6.144-1.119-12.5-5.248-12.5-4.3,0-4.929,6.708-5.536,13.2l-.094,1c-.5,5.2-1.014,8.918-3.174,9.457a3.6,3.6,0,0,1-3-.759c-2.222-1.6-3.9-5.123-4.177-8.758-.12-1.585-.157-3.309-.2-5.134-.08-3.782-.163-7.692-1.046-10.048a22.806,22.806,0,0,0-2.2-4.128c-1.9-3.045-3.871-6.194-2.949-12.182,1.067-6.943,6.286-10.767,14.693-10.767a18.524,18.524,0,0,1,6.262,1.173,4.33,4.33,0,0,0,2.8.025,21.753,21.753,0,0,1,6.071-1.2c8.414.064,13.631,3.888,14.689,10.767.921,5.988-1.047,9.137-2.95,12.182a22.835,22.835,0,0,0-2.2,4.128c-.884,2.357-.966,6.268-1.046,10.05-.038,1.824-.075,3.547-.2,5.132-.277,3.635-1.956,7.155-4.178,8.758a3.982,3.982,0,0,1-2.306.843m-9.269-24.99c5.273,0,5.895,6.933,6.5,13.638.051.567.1,1.133.155,1.692.3,3.183.764,7.994,2.232,8.362a2.5,2.5,0,0,0,1.96-.559c1.614-1.165,3.372-4.04,3.662-7.838.118-1.55.154-3.256.192-5.062.082-3.887.166-7.907,1.125-10.464a24.146,24.146,0,0,1,2.312-4.351c1.864-2.982,3.624-5.8,2.774-11.328-.967-6.289-5.622-9.646-13.461-9.705h-.058a20.127,20.127,0,0,0-5.613,1.136,5.582,5.582,0,0,1-3.615-.037,17.276,17.276,0,0,0-5.838-1.1c-7.827,0-12.48,3.356-13.456,9.705-.85,5.528.91,8.345,2.774,11.328a24.15,24.15,0,0,1,2.312,4.351c.959,2.557,1.043,6.575,1.126,10.461.038,1.808.074,3.515.192,5.066.288,3.8,2.047,6.673,3.661,7.838a2.489,2.489,0,0,0,1.961.56c1.469-.367,1.928-5.179,2.232-8.362l.094-1c.629-6.718,1.341-14.331,6.783-14.331" transform="translate(-53.371 -58.567)" fill="#556193"/>
          <path id="패스_8277" data-name="패스 8277" d="M6.577,195.239c-.763,0-1.511-.007-2.222-.018l.019-1.252c5.874.094,10.012-.172,11.671-.747a11.542,11.542,0,0,0,5.308-3.888l1.036.7a12.6,12.6,0,0,1-5.934,4.37c-1.914.662-6.082.834-9.877.834" transform="translate(-3.465 -150.626)" fill="#556193"/>
          <path id="패스_8278" data-name="패스 8278" d="M278.076,195.272c-3.7,0-7.764-.171-9.619-.836a12.282,12.282,0,0,1-5.74-4.375l1.049-.685a11.2,11.2,0,0,0,5.115,3.882c1.592.571,5.6.833,11.3.745l.02,1.252c-.679.011-1.393.017-2.121.017" transform="translate(-209.008 -150.66)" fill="#556193"/>
        </g>
      </g>
    </g>
  </g>
</svg>
